<?xml version="1.0" encoding="UTF-8" standalone="no"?>
<svg
   xmlns:dc="http://purl.org/dc/elements/1.1/"
   xmlns:cc="http://creativecommons.org/ns#"
   xmlns:rdf="http://www.w3.org/1999/02/22-rdf-syntax-ns#"
   xmlns:svg="http://www.w3.org/2000/svg"
   xmlns="http://www.w3.org/2000/svg"
   xmlns:sodipodi="http://sodipodi.sourceforge.net/DTD/sodipodi-0.dtd"
   xmlns:inkscape="http://www.inkscape.org/namespaces/inkscape"
   id="svg1421"
   version="1.1"
   viewBox="0 0 89.063034 89.063034"
   height="89.063034mm"
   width="89.063034mm"
   sodipodi:docname="CycleTimeIcon.svg"
   inkscape:version="0.92.3 (2405546, 2018-03-11)">
  <sodipodi:namedview
     pagecolor="#ffffff"
     bordercolor="#666666"
     borderopacity="1"
     objecttolerance="10"
     gridtolerance="10"
     guidetolerance="10"
     inkscape:pageopacity="0"
     inkscape:pageshadow="2"
     inkscape:window-width="3840"
     inkscape:window-height="2066"
     id="namedview7"
     showgrid="false"
     inkscape:zoom="1.8121529"
     inkscape:cx="73.57784"
     inkscape:cy="185.15664"
     inkscape:window-x="-11"
     inkscape:window-y="-11"
     inkscape:window-maximized="1"
     inkscape:current-layer="svg1421" />
  <defs
     id="defs1415" />
  <metadata
     id="metadata1418">
    <rdf:RDF>
      <cc:Work
         rdf:about="">
        <dc:format>image/svg+xml</dc:format>
        <dc:type
           rdf:resource="http://purl.org/dc/dcmitype/StillImage" />
        <dc:title />
      </cc:Work>
    </rdf:RDF>
  </metadata>
  <g
     transform="matrix(0.86624543,0,0,0.86624543,25.478927,89.669053)"
     id="layer1"
     style="stroke-width:1.15440726">
    <path
       id="path1977"
       d="M 21.519235,-3.3921308 C 11.058755,-4.4059128 3.2537649,-7.2288508 -4.2776451,-12.722437 -12.406735,-18.651991 -18.715015,-27.200184 -21.865505,-36.555284 l -0.89796,-2.666426 h 5.34534 5.34534 l 1.17522,2.56201 c 4.4732999,9.751884 12.3312199,17.148859 22.05281,20.759172 5.93143,2.20276 13.27027,2.908467 19.35982,1.861656 10.1075,-1.73751 18.613871,-6.921203 24.735303,-15.073442 7.063465,-9.406798 9.425273,-20.950585 6.588405,-32.202105 -2.803702,-11.119986 -10.802241,-20.774435 -21.289798,-25.697342 -2.84097,-1.333565 -6.51051,-2.451689 -10.03391,-3.057372 -5.6133,-0.964942 -12.94089,-0.387436 -18.38854,1.449246 -8.8829101,2.994882 -17.1004301,9.782109 -21.6128401,17.851042 l -0.9476299,1.694532 1.5567899,1.576213 c 0.85624,0.866918 4.02735,4.037902 7.04691,7.046632 3.01955,3.008731 5.4901,5.563458 5.4901,5.677173 0,0.113713 -7.44141,0.206751 -16.5364599,0.206751 h -16.53645 V -71.24778 -87.928017 l 5.83907,5.832319 c 3.2115,3.207776 5.88178,5.83232 5.93397,5.83232 0.0522,0 0.54163,-0.744141 1.08764,-1.653646 2.5447,-4.238751 6.8597199,-9.125574 10.9518099,-12.403093 12.56026,-10.059993 30.0310901,-13.146953 45.2437501,-7.994231 25.698931,8.704562 39.489583,36.023322 31.097288,61.602541 -3.367746,10.264688 -10.179515,19.152347 -19.458873,25.388971 -4.133305,2.7779792 -10.923615,5.7014662 -15.739455,6.7764342 -3.94252,0.880028 -10.92348,1.454653 -14.02291,1.154271 z m 7.21995,-38.4358282 -11.83005,-7.051043 -0.0101,-13.170287 -0.0101,-13.170284 3.77032,0.07341 3.77031,0.07341 0.13229,10.828036 0.13229,10.828034 9.96691,5.973008 c 5.4818,3.285152 10.034343,6.040861 10.116764,6.123798 0.189714,0.190899 -3.588104,6.398498 -3.944484,6.481461 -0.14531,0.03382 -5.58771,-3.111469 -12.09423,-6.989543 z"
       style="fill:#000000;stroke-width:1.15440726"
       inkscape:connector-curvature="0" />
  </g>
</svg>
