<?xml version="1.0" encoding="UTF-8" standalone="no"?>
<svg
   xmlns:dc="http://purl.org/dc/elements/1.1/"
   xmlns:cc="http://creativecommons.org/ns#"
   xmlns:rdf="http://www.w3.org/1999/02/22-rdf-syntax-ns#"
   xmlns:svg="http://www.w3.org/2000/svg"
   xmlns="http://www.w3.org/2000/svg"
   xmlns:sodipodi="http://sodipodi.sourceforge.net/DTD/sodipodi-0.dtd"
   xmlns:inkscape="http://www.inkscape.org/namespaces/inkscape"
   id="svg834"
   version="1.1"
   viewBox="0 0 107.71629 107.7163"
   height="107.7163mm"
   width="107.7163mm"
   sodipodi:docname="Settings Icon.svg"
   inkscape:version="0.92.3 (2405546, 2018-03-11)">
  <sodipodi:namedview
     pagecolor="#ffffff"
     bordercolor="#666666"
     borderopacity="1"
     objecttolerance="10"
     gridtolerance="10"
     guidetolerance="10"
     inkscape:pageopacity="0"
     inkscape:pageshadow="2"
     inkscape:window-width="3840"
     inkscape:window-height="2066"
     id="namedview10"
     showgrid="false"
     inkscape:zoom="1.4172839"
     inkscape:cx="704.14793"
     inkscape:cy="75.932963"
     inkscape:window-x="-11"
     inkscape:window-y="-11"
     inkscape:window-maximized="1"
     inkscape:current-layer="svg834" />
  <defs
     id="defs828" />
  <metadata
     id="metadata831">
    <rdf:RDF>
      <cc:Work
         rdf:about="">
        <dc:format>image/svg+xml</dc:format>
        <dc:type
           rdf:resource="http://purl.org/dc/dcmitype/StillImage" />
        <dc:title />
      </cc:Work>
    </rdf:RDF>
  </metadata>
  <g
     transform="matrix(0.8581384,0,0,0.8581384,378.02511,10.066854)"
     id="layer1"
     style="stroke-width:1.16531324">
    <path
       id="path1402"
       d="m -388.22851,-11.275821 -1.18184,0.624251 c -0.75282,0.397603 -1.44899,1.0555941 -1.9177,1.8122931 -0.68379,1.103877 -0.79258,1.693 -1.53273,8.31422095 -0.4381,3.91920505 -0.85529,7.40125305 -0.92707,7.73802905 -0.0818,0.383922 -0.43127,0.717225 -0.93689,0.893485 -2.70375,0.9425229 -8.15512,4.0551349 -11.27839,6.4399169 l -1.14515,0.874365 -6.67091,-2.91455 c -3.66903,-1.602982 -7.1329,-3.025778 -7.69721,-3.162081 -1.52349,-0.367982 -3.49231,0.280435 -4.69016,1.544608 -1.26873,1.339065 -10.46599,17.390962 -10.70012,18.674829 -0.27998,1.53538 0.3265,3.274699 1.58028,4.531508 0.59274,0.594185 3.557,2.903516 6.5872,5.131469 l 5.5092,4.050914 -0.21754,1.769919 c -0.27209,2.21125 -0.28408,9.354619 -0.0196,11.824084 l 0.19844,1.852083 -6.22909,4.597136 c -6.561,4.842099 -7.05083,5.345416 -7.41196,7.615554 -0.0969,0.609172 -0.012,1.450938 0.21239,2.100649 0.60867,1.76244 9.50864,17.048096 10.53684,18.097085 1.06373,1.08527 2.91806,1.739511 4.29739,1.51567 0.48136,-0.0781 3.93107,-1.46296 7.66569,-3.077331 3.73462,-1.614379 6.90322,-2.935221 7.04144,-2.935221 0.13822,0 0.58756,0.280759 0.99891,0.624249 2.19128,1.829801 7.10171,4.710333 10.47067,6.142263 1.55652,0.661569 1.80195,0.8612 1.9177,1.56011 0.073,0.440812 0.48485,3.861421 0.91519,7.601603 0.85247,7.40862 1.12046,8.35118 2.7218,9.56634 0.47432,0.3599 1.27921,0.77253 1.78853,0.91726 1.31024,0.37232 19.68008,0.3891 21.03438,0.0191 1.33368,-0.3643 2.56521,-1.28559 3.29281,-2.4629 0.46898,-0.75882 0.71679,-2.2232 1.46143,-8.62996 0.49324,-4.243902 0.93522,-7.749829 0.98184,-7.791258 0.0466,-0.0414 1.12747,-0.52115 2.40192,-1.065569 2.70433,-1.155208 6.44369,-3.317211 8.94675,-5.172811 0.97073,-0.719651 1.84743,-1.308446 1.94768,-1.308446 0.10025,0 3.36169,1.369218 7.24812,3.042708 3.88647,1.673489 7.42146,3.041967 7.85535,3.041158 1.35446,-0.003 2.64906,-0.495269 3.64681,-1.388028 0.90011,-0.805411 8.83203,-14.163339 10.40815,-17.52813 0.90106,-1.92369 0.75311,-3.699404 -0.45167,-5.432742 -0.25628,-0.368692 -3.21125,-2.690405 -6.56704,-5.159375 l -6.10142,-4.489133 0.19171,-1.719791 c 0.21913,-1.966402 0.25673,-9.624037 0.0594,-12.13621 l -0.13229,-1.685169 5.68854,-4.218347 c 3.1287,-2.32015 5.97186,-4.478816 6.31849,-4.797123 1.52222,-1.397889 2.00789,-3.930161 1.12601,-5.870443 -0.55332,-1.217454 -9.09378,-16.035021 -9.87795,-17.137972 -0.75287,-1.058971 -2.47441,-1.852544 -4.04575,-1.865519 -1.1204,-0.0093 -2.39299,0.452536 -8.20518,2.977596 -3.78354,1.643729 -6.95205,3.031594 -7.0409,3.08405 -0.0889,0.05246 -1.03828,-0.560922 -2.10995,-1.362708 -2.5291,-1.892122 -5.45415,-3.5973 -8.60361,-5.015714 -1.39049,-0.6262379 -2.59231,-1.2027549 -2.67065,-1.2810589 -0.0783,-0.0783 -0.52824,-3.513083 -0.99994,-7.633126 -0.96433,-8.42235 -1.19415,-9.198799 -3.10058,-10.4608601 l -1.09968,-0.727604 -10.74405,-0.07441 z m 10.55492,43.247489 c 0.2744,0.0031 0.55306,0.01064 0.83561,0.02274 10.32801,0.442094 18.13861,8.611099 18.14462,18.977135 0.003,5.438844 -1.74009,9.668907 -5.56763,13.512871 -1.83533,1.843204 -2.71383,2.496238 -4.6891,3.484026 -3.4884,1.744469 -6.93462,2.390661 -10.79831,2.024681 -2.51769,-0.238479 -3.85979,-0.624115 -6.35,-1.824696 -13.18749,-6.357937 -14.49337,-24.873804 -2.32751,-33.0016 3.40238,-2.273063 6.63641,-3.242317 10.75232,-3.195155 z"
       style="opacity:1;fill:#000000;fill-opacity:0.95580115;stroke:none;stroke-width:0.37406555;stroke-linecap:square;stroke-miterlimit:4;stroke-dasharray:none;stroke-dashoffset:0;stroke-opacity:1"
       inkscape:connector-curvature="0" />
  </g>
</svg>
