<?xml version="1.0" encoding="UTF-8" standalone="no"?>
<svg
   xmlns:dc="http://purl.org/dc/elements/1.1/"
   xmlns:cc="http://creativecommons.org/ns#"
   xmlns:rdf="http://www.w3.org/1999/02/22-rdf-syntax-ns#"
   xmlns:svg="http://www.w3.org/2000/svg"
   xmlns="http://www.w3.org/2000/svg"
   xmlns:sodipodi="http://sodipodi.sourceforge.net/DTD/sodipodi-0.dtd"
   xmlns:inkscape="http://www.inkscape.org/namespaces/inkscape"
   id="svg8"
   version="1.1"
   viewBox="0 0 168.53378 168.53378"
   height="168.53378mm"
   width="168.53378mm"
   sodipodi:docname="warningIcon.svg"
   inkscape:version="0.92.3 (2405546, 2018-03-11)">
  <sodipodi:namedview
     pagecolor="#ffffff"
     bordercolor="#666666"
     borderopacity="1"
     objecttolerance="10"
     gridtolerance="10"
     guidetolerance="10"
     inkscape:pageopacity="0"
     inkscape:pageshadow="2"
     inkscape:window-width="3840"
     inkscape:window-height="2066"
     id="namedview7"
     showgrid="false"
     inkscape:zoom="1.2755002"
     inkscape:cx="926.13452"
     inkscape:cy="255.28108"
     inkscape:window-x="-11"
     inkscape:window-y="-11"
     inkscape:window-maximized="1"
     inkscape:current-layer="svg8" />
  <defs
     id="defs2" />
  <metadata
     id="metadata5">
    <rdf:RDF>
      <cc:Work
         rdf:about="">
        <dc:format>image/svg+xml</dc:format>
        <dc:type
           rdf:resource="http://purl.org/dc/dcmitype/StillImage" />
        <dc:title />
      </cc:Work>
    </rdf:RDF>
  </metadata>
  <g
     transform="matrix(0.79661018,0,0,0.79661018,124.11124,200.9649)"
     id="layer1"
     style="stroke-width:1.25531912">
    <path
       id="path826"
       d="m -144.3491,-48.955318 c -6.37287,-1.83735 -10.79444,-7.22761 -11.29099,-13.76462 -0.17712,-2.33186 0.37062,-4.7679 1.63789,-7.28435 2.41502,-4.7956 91.317019,-167.494762 92.130109,-168.606922 1.83711,-2.51283 5.28719,-4.7369 8.50697,-5.48396 0.78239,-0.18153 2.38973,-0.31948 3.57187,-0.30655 4.16071,0.0455 7.35756,1.40938 10.35145,4.41623 1.85016,1.85819 1.89977,1.94761 47.9241396,86.38783 25.3396304,46.49025 46.2722604,85.123032 46.5169604,85.850632 0.24469,0.72761 0.51374,2.1799 0.59789,3.22732 0.54656,6.80302 -4.48829,13.80764 -11.17707,15.54985 -1.38322,0.36028 -11.85086,0.40251 -94.56699,0.38147 -75.377949,-0.0192 -93.237329,-0.0887 -94.202229,-0.36693 z m 107.583889,-30.18514 c 0.40166,-0.30003 0.97578,-0.87416 1.27581,-1.27584 0.5291,-0.70835 0.54798,-1.08999 0.62768,-12.68365 0.0548,-7.970352 -0.0124,-12.275762 -0.20171,-12.920972 -0.15613,-0.53221 -0.70326,-1.33588 -1.21585,-1.78594 l -0.93198,-0.81829 h -12.57164 c -13.87504,0 -13.64037,-0.0266 -14.67274,1.66649 -0.49278,0.80819 -0.51652,1.41509 -0.51747,13.229462 -10e-4,12.9903 0.0193,13.23692 1.16969,14.19166 1.21448,1.00793 2.05167,1.06646 14.35455,1.00364 11.61092,-0.0593 11.97428,-0.0767 12.68366,-0.60656 z m -1.27027,-44.844752 c 0.85113,-0.18254 1.55915,-0.54924 2.05033,-1.06192 0.89416,-0.9333 0.79774,0.45962 1.83017,-26.44052 0.37141,-9.67713 0.79514,-20.31742 0.94162,-23.64507 0.31107,-7.0665 0.28234,-7.18173 -2.10118,-8.4269 l -1.40956,-0.73636 -13.2651,0.006 c -12.29913,0.005 -13.34217,0.0412 -14.32344,0.4913 -1.30255,0.59752 -2.41448,1.68867 -2.57465,2.52654 -0.0662,0.34619 0.0352,4.77836 0.22526,9.84925 0.19007,5.0709 0.5863,15.76824 0.8805,23.77189 0.83324,22.66791 0.7752,21.76114 1.44264,22.53709 1.07615,1.2511 2.28757,1.37049 14.10229,1.38984 6.71054,0.011 11.40081,-0.0893 12.20112,-0.26095 z"
       style="fill:#000000;stroke-width:1.25531912"
       inkscape:connector-curvature="0" />
  </g>
</svg>
